<?xml version="1.0" encoding="UTF-8" standalone="no"?>
<!-- Created with Inkscape (http://www.inkscape.org/) -->

<svg
   width="129.72626mm"
   height="21.533667mm"
   viewBox="0 0 129.72626 21.533667"
   version="1.1"
   id="svg5"
   inkscape:version="1.1.2 (b8e25be833, 2022-02-05)"
   sodipodi:docname="scamalert.svg"
   xmlns:inkscape="http://www.inkscape.org/namespaces/inkscape"
   xmlns:sodipodi="http://sodipodi.sourceforge.net/DTD/sodipodi-0.dtd"
   xmlns:xlink="http://www.w3.org/1999/xlink"
   xmlns="http://www.w3.org/2000/svg"
   xmlns:svg="http://www.w3.org/2000/svg">
  <sodipodi:namedview
     id="namedview7"
     pagecolor="#ffffff"
     bordercolor="#999999"
     borderopacity="1"
     inkscape:pageshadow="0"
     inkscape:pageopacity="0"
     inkscape:pagecheckerboard="0"
     inkscape:document-units="mm"
     showgrid="false"
     fit-margin-top="0"
     fit-margin-left="0"
     fit-margin-right="0"
     fit-margin-bottom="0"
     inkscape:zoom="2.1014405"
     inkscape:cx="190.82149"
     inkscape:cy="41.638106"
     inkscape:window-width="2400"
     inkscape:window-height="1271"
     inkscape:window-x="-2409"
     inkscape:window-y="-9"
     inkscape:window-maximized="1"
     inkscape:current-layer="text36856" />
  <defs
     id="defs2">
    <linearGradient
       inkscape:collect="always"
       xlink:href="#linearGradient52991"
       id="linearGradient52993"
       x1="-667.17706"
       y1="1678.8937"
       x2="-537.45081"
       y2="1678.8937"
       gradientUnits="userSpaceOnUse"
       gradientTransform="translate(677.09812,-1657.1707)" />
    <linearGradient
       inkscape:collect="always"
       id="linearGradient52991">
      <stop
         style="stop-color:#f60031;stop-opacity:1;"
         offset="0"
         id="stop52987" />
      <stop
         style="stop-color:#f60031;stop-opacity:0;"
         offset="1"
         id="stop52989" />
    </linearGradient>
    <linearGradient
       inkscape:collect="always"
       xlink:href="#linearGradient53117-9"
       id="linearGradient52871"
       x1="-666.30939"
       y1="1678.8937"
       x2="-538.31854"
       y2="1678.8937"
       gradientUnits="userSpaceOnUse"
       gradientTransform="translate(677.09812,-1657.1707)" />
    <linearGradient
       inkscape:collect="always"
       id="linearGradient53117-9">
      <stop
         style="stop-color:#ff8282;stop-opacity:1"
         offset="0"
         id="stop53113" />
      <stop
         style="stop-color:#ff76cb;stop-opacity:1"
         offset="1"
         id="stop53115" />
    </linearGradient>
    <linearGradient
       inkscape:collect="always"
       xlink:href="#linearGradient41513"
       id="linearGradient41515"
       x1="-664.7865"
       y1="1679.4417"
       x2="-535.06836"
       y2="1679.4181"
       gradientUnits="userSpaceOnUse"
       gradientTransform="translate(675.98942,-1657.6951)" />
    <linearGradient
       inkscape:collect="always"
       id="linearGradient41513">
      <stop
         style="stop-color:#f60031;stop-opacity:1"
         offset="0"
         id="stop41509" />
      <stop
         style="stop-color:#f800a9;stop-opacity:1"
         offset="1"
         id="stop41511" />
    </linearGradient>
  </defs>
  <g
     inkscape:label="Layer 1"
     inkscape:groupmode="layer"
     id="layer1"
     transform="translate(-9.921048,-10.956211)">
    <g
       aria-label="scam alert"
       id="text36856-4"
       style="font-size:26.4583px;font-family:Montserrat;-inkscape-font-specification:Montserrat;letter-spacing:-0.529167px;fill:url(#linearGradient52993);stroke:url(#linearGradient52871);stroke-width:2">
      <g
         id="path837">
        <path
           style="color:#000000;-inkscape-font-specification:'Inter Semi-Bold';stroke:none;-inkscape-stroke:none"
           d="m 22.966339,20.581466 -3.100582,0.338245 q -0.13154,-0.469785 -0.460389,-0.883196 -0.319454,-0.413411 -0.864405,-0.667095 -0.544951,-0.253684 -1.33419,-0.253684 -1.061714,0 -1.785183,0.46039 -0.714074,0.460389 -0.704678,1.193254 -0.0094,0.629512 0.460389,1.024132 0.479181,0.394619 1.578479,0.648303 l 2.461674,0.526159 q 2.048263,0.441599 3.044208,1.39996 1.00534,0.958362 1.014735,2.508653 -0.0094,1.362377 -0.798634,2.4053 -0.779844,1.033527 -2.170408,1.616061 -1.390564,0.582533 -3.194539,0.582533 -2.649588,0 -4.265649,-1.108693 -1.616061,-1.118088 -1.926119,-3.109977 l 3.316683,-0.319454 q 0.225497,0.977153 0.958362,1.475125 0.732865,0.497972 1.907328,0.497972 1.212045,0 1.94491,-0.497972 0.742261,-0.497972 0.742261,-1.230837 0,-0.620116 -0.479181,-1.024132 -0.469785,-0.404015 -1.46573,-0.620116 l -2.461674,-0.516764 q -2.07645,-0.432202 -3.072395,-1.456334 -0.995944,-1.033527 -0.986549,-2.612005 -0.0094,-1.33419 0.723469,-2.311343 0.742261,-0.986549 2.057659,-1.522104 1.324794,-0.544951 3.053604,-0.544951 2.53684,0 3.993174,1.080506 1.465729,1.080506 1.81337,2.922064 z"
           id="path858" />
        <path
           style="color:#000000;-inkscape-font-specification:'Inter Semi-Bold';fill:url(#linearGradient52871);stroke:none;-inkscape-stroke:none"
           d="m 17.160156,15.578125 c -1.257611,0 -2.408868,0.199575 -3.433593,0.621094 -1.013524,0.413129 -1.863909,1.031416 -2.476563,1.845703 h -0.002 v 0.002 c -0.619303,0.825732 -0.927806,1.83893 -0.921875,2.910156 -0.006,1.261515 0.425471,2.434783 1.265625,3.306641 l 0.002,0.002 c 0.778503,0.800536 1.892069,1.293179 3.212891,1.617187 l -5.0371097,0.484375 0.1640625,1.048829 c 0.2429432,1.560727 1.0624892,2.89089 2.3437502,3.777343 l 0.002,0.002 0.002,0.002 c 1.287598,0.883352 2.926161,1.283203 4.832031,1.283203 1.310288,0 2.510896,-0.212256 3.580078,-0.660157 1.059988,-0.444049 1.944415,-1.090513 2.582032,-1.935546 0.651439,-0.860836 0.994366,-1.902375 1.001953,-3.001954 v -0.0059 -0.0059 c -0.0076,-1.248427 -0.462149,-2.402914 -1.326172,-3.226563 -0.855257,-0.82149 -2.046628,-1.335901 -3.523438,-1.654297 l -0.05273,-0.01172 4.775391,-0.519532 -0.201172,-1.0625 c -0.27249,-1.44346 -1.037285,-2.682142 -2.201172,-3.541015 -1.194031,-0.885894 -2.754691,-1.277344 -4.587891,-1.277344 z m 0,2 c 1.54925,0 2.648739,0.329986 3.396485,0.884766 h 0.002 l 0.002,0.002 c 0.475529,0.35055 0.790118,0.778294 1.035156,1.259765 L 20.41611,19.853563 C 20.33247,19.713129 20.293807,19.551151 20.1915,19.421922 19.871294,19.00962 19.444755,18.68721 18.962985,18.462938 c -0.530751,-0.247074 -1.122558,-0.347657 -1.75586,-0.347657 -0.852351,0 -1.653024,0.191307 -2.322265,0.617188 l -0.002,0.002 -0.0039,0.002 c -0.675759,0.435686 -1.161173,1.21783 -1.158203,2.027344 -0.0066,0.668195 0.299007,1.36359 0.8125,1.794922 l 0.0039,0.0039 0.0039,0.0039 c 0.527954,0.434785 1.177691,0.6621 1.990234,0.84961 l 0.0078,0.002 2.466797,0.527343 c 1.252461,0.270027 2.090046,0.687953 2.5625,1.142579 l 0.002,0.002 0.002,0.002 c 0.474902,0.452711 0.696784,0.971071 0.703125,1.785156 -0.0065,0.712602 -0.196522,1.273288 -0.595704,1.800781 v 0.002 c -0.402174,0.533002 -0.963716,0.964214 -1.757812,1.296875 -0.784901,0.32881 -1.713584,0.503907 -2.808594,0.503907 -1.624837,0 -2.83036,-0.338148 -3.697265,-0.931641 C 12.862377,29.16602 12.521563,28.685711 12.2677,28.137036 l 1.53711,-0.148438 c 0.246679,0.450705 0.406158,0.967812 0.830078,1.25586 0.693969,0.471543 1.544442,0.671875 2.46875,0.671875 0.94498,0 1.805317,-0.195866 2.505859,-0.671875 0.680971,-0.458821 1.181641,-1.232309 1.181641,-2.056641 0,-0.669503 -0.32374,-1.353123 -0.833985,-1.785156 -0.51046,-0.437158 -1.142353,-0.673835 -1.898437,-0.837891 h -0.0039 L 15.587891,24.046875 C 14.327796,23.784593 13.50229,23.358594 13.03125,22.875 l -0.002,-0.002 c -0.485125,-0.504251 -0.710076,-1.070478 -0.705078,-1.910156 v -0.0059 -0.0059 c -0.005,-0.703916 0.167925,-1.228495 0.523437,-1.703125 0.376485,-0.50039 0.895612,-0.896325 1.634766,-1.197266 l 0.002,-0.002 h 0.002 c 0.741665,-0.305082 1.626362,-0.470703 2.673828,-0.470703 z m 0.04687,2.537109 c 0.419016,0 0.71626,0.06898 0.91211,0.160157 0.242659,0.112962 0.38888,0.236827 0.49414,0.373046 l 0.0059,0.0059 0.0039,0.0039 c 0.14479,0.182022 0.229408,0.353075 0.279297,0.53125 l 0.205078,0.732422 -2.142578,-0.457031 0.01563,0.002 c -0.649962,-0.149991 -1.048831,-0.351338 -1.16211,-0.44336 -0.104645,-0.08751 -0.104027,-0.07318 -0.101562,-0.238281 v -0.01563 -0.01367 c -0.002,-0.15953 -0.0184,-0.166278 0.244141,-0.335937 0.295225,-0.187482 0.683659,-0.304688 1.246093,-0.304688 z m -2.169922,5.84375 c 0.05134,0.01139 0.0886,0.03408 0.140625,0.04492 l 2.455078,0.515625 c 9.41e-4,2.04e-4 0.001,-2.04e-4 0.002,0 l 0.0059,0.002 c 0.562186,0.123479 0.905221,0.300131 1.019531,0.398438 l 0.002,0.0039 0.0039,0.0039 c 0.126691,0.106819 0.125,0.103931 0.125,0.259766 0,0.15097 0.0056,0.194855 -0.300782,0.400391 h -0.002 l -0.002,0.002 c -0.27661,0.187953 -0.711734,0.326172 -1.382812,0.326172 -0.641642,0 -1.062521,-0.133753 -1.345703,-0.326172 -0.276518,-0.18789 -0.439595,-0.416627 -0.544922,-0.873047 z"
           id="path860" />
      </g>
      <g
         id="path839">
        <path
           style="color:#000000;-inkscape-font-specification:'Inter Semi-Bold';stroke:none;-inkscape-stroke:none"
           d="m 31.851662,31.480481 q -2.161012,0 -3.711303,-0.948966 -1.540895,-0.948966 -2.377113,-2.621401 -0.826822,-1.681831 -0.826822,-3.871029 0,-2.198595 0.845614,-3.880426 0.845613,-1.691226 2.386508,-2.630797 1.550291,-0.948966 3.664324,-0.948966 1.756997,0 3.109978,0.648304 1.362377,0.638908 2.170407,1.813371 0.808031,1.165067 0.920779,2.724753 h -3.250913 q -0.19731,-1.042923 -0.93957,-1.738205 -0.732865,-0.704677 -1.963702,-0.704677 -1.042923,0 -1.832162,0.563742 -0.789239,0.554346 -1.230837,1.597269 -0.432203,1.042923 -0.432203,2.499257 0,1.475126 0.432203,2.53684 0.432202,1.052319 1.212045,1.625457 0.789239,0.563742 1.850954,0.563742 0.751656,0 1.343585,-0.281871 0.601325,-0.291267 1.005341,-0.836218 0.404015,-0.54495 0.554346,-1.324794 h 3.250913 q -0.122144,1.5315 -0.901987,2.715358 -0.779844,1.174463 -2.123429,1.841558 -1.343586,0.657699 -3.156956,0.657699 z"
           id="path864" />
        <path
           style="color:#000000;-inkscape-font-specification:'Inter Semi-Bold';fill:url(#linearGradient52871);stroke:none;-inkscape-stroke:none"
           d="m 31.832031,15.578125 c -1.558983,0 -2.979394,0.359345 -4.185547,1.097656 -1.184417,0.722828 -2.120922,1.757469 -2.759765,3.035156 -0.641552,1.27694 -0.951172,2.735106 -0.951172,4.328125 0,1.585358 0.302682,3.037114 0.929687,4.3125 l 0.002,0.002 0.002,0.0039 c 0.633521,1.267041 1.564259,2.297554 2.746093,3.02539 h 0.002 l 0.002,0.002 c 1.209988,0.740659 2.645372,1.095703 4.232421,1.095703 1.329811,0 2.542372,-0.243193 3.597657,-0.759766 l 0.002,-0.002 h 0.002 c 1.036065,-0.51441 1.893692,-1.252832 2.511719,-2.183594 l 0.002,-0.002 v -0.002 c 0.615674,-0.934638 0.971238,-2.016776 1.064453,-3.185547 l 0.08594,-1.080078 h -5.160156 l -0.15625,0.810547 c -0.0769,0.398913 -0.206231,0.690327 -0.375,0.917969 -0.177243,0.239072 -0.376247,0.403882 -0.632812,0.529296 -5.06e-4,2.41e-4 -0.0014,-2.4e-4 -0.002,0 -0.245954,0.116829 -0.536778,0.185547 -0.91211,0.185547 -0.527593,0 -0.909902,-0.125521 -1.261719,-0.375 -0.353315,-0.261162 -0.644025,-0.63294 -0.875,-1.195312 -0.22642,-0.557589 -0.357421,-1.272057 -0.357421,-2.15625 0,-0.869483 0.12958,-1.566824 0.353515,-2.109375 l 0.002,-0.002 c 0.235571,-0.555122 0.526906,-0.916034 0.882813,-1.166016 l 0.002,-0.002 0.0039,-0.0039 c 0.356631,-0.254737 0.734899,-0.376953 1.25,-0.376953 0.629718,0 0.984525,0.149858 1.271485,0.425781 l 0.0039,0.0039 0.0059,0.0059 c 0.345038,0.323201 0.544117,0.683244 0.640625,1.19336 l 0.154297,0.814453 h 5.154297 L 39.03125,21.693359 C 38.945099,20.5016 38.581333,19.40438 37.9375,18.474609 37.299105,17.546709 36.421497,16.819815 35.371094,16.326172 34.317802,15.822166 33.12499,15.578125 31.832031,15.578125 Z m 0,2 c 1.048336,0 1.927872,0.191472 2.677735,0.550781 l 0.0039,0.002 0.0039,0.002 c 0.763795,0.358194 1.333557,0.838087 1.771484,1.47461 l 0.002,0.002 v 0.002 c 0.223957,0.322916 0.261391,0.770128 0.386718,1.154297 H 35.324219 C 35.101896,20.2484 34.943482,19.690251 34.53125,19.302734 c -0.689791,-0.660298 -1.643457,-0.980468 -2.652344,-0.980468 -0.873967,0 -1.713204,0.252806 -2.408203,0.748046 -0.694644,0.488614 -1.221599,1.190655 -1.574219,2.023438 l -0.002,0.0039 -0.002,0.0039 c -0.35116,0.847363 -0.507812,1.811047 -0.507812,2.88086 0,1.081081 0.156746,2.056461 0.505859,2.914062 v 0.002 l 0.002,0.002 c 0.344198,0.838047 0.860731,1.547941 1.544922,2.050781 l 0.0039,0.0039 0.0059,0.0039 c 0.698741,0.499101 1.54684,0.75 2.43164,0.75 0.626104,0 1.232428,-0.120352 1.775391,-0.378906 l 0.002,-0.002 0.0039,-0.002 c 0.542011,-0.262537 1.011154,-0.655126 1.371094,-1.140625 0.196666,-0.265271 0.265512,-0.608894 0.390625,-0.919922 h 1.259766 c -0.124107,0.386751 -0.163725,0.82885 -0.382813,1.162109 -0.420751,0.633661 -0.97785,1.121401 -1.730469,1.496094 -0.736161,0.360359 -1.628782,0.556641 -2.716797,0.556641 -1.294296,0 -2.332388,-0.278107 -3.189453,-0.802735 -0.871057,-0.537024 -1.522982,-1.251614 -2.003906,-2.21289 -2.33e-4,-4.67e-4 2.33e-4,-0.0015 0,-0.002 -0.473798,-0.965927 -0.722656,-2.092593 -0.722656,-3.423829 0,-1.337523 0.255051,-2.466666 0.740234,-3.43164 v -0.002 c 0.488212,-0.976425 1.144691,-1.694743 2.013672,-2.22461 h 0.002 c 0.860901,-0.526975 1.880901,-0.802734 3.140625,-0.802734 z"
           id="path866" />
      </g>
      <g
         id="path841">
        <path
           style="color:#000000;-inkscape-font-specification:'Inter Semi-Bold';stroke:none;-inkscape-stroke:none"
           d="m 44.457707,31.489877 q -1.371773,0 -2.47107,-0.488576 -1.089902,-0.497973 -1.72881,-1.46573 -0.629512,-0.967758 -0.629512,-2.386509 0,-1.221441 0.450994,-2.020076 0.450994,-0.798635 1.230837,-1.277815 0.779844,-0.479181 1.756997,-0.72347 0.986548,-0.253684 2.038867,-0.366432 1.26842,-0.13154 2.057659,-0.234893 0.789239,-0.112748 1.146276,-0.338245 0.366432,-0.234892 0.366432,-0.723469 v -0.05637 q 0,-1.061715 -0.629512,-1.644248 -0.629512,-0.582534 -1.81337,-0.582534 -1.249629,0 -1.982494,0.544951 -0.723469,0.544951 -0.977153,1.287211 L 40.0981,20.562675 q 0.375829,-1.315399 1.240233,-2.198595 0.864405,-0.892592 2.114033,-1.33419 1.249629,-0.450994 2.762337,-0.450994 1.042923,0 2.076451,0.244289 1.033527,0.244288 1.888536,0.80803 0.855009,0.554347 1.371772,1.512708 0.52616,0.958362 0.52616,2.395905 v 9.658782 h -3.269705 v -1.982493 h -0.112748 q -0.310058,0.601325 -0.873801,1.127484 -0.554346,0.516764 -1.399959,0.836218 -0.836218,0.310058 -1.963702,0.310058 z m 0.883196,-2.499257 q 1.024131,0 1.775788,-0.404015 0.751656,-0.413411 1.155671,-1.089902 0.413411,-0.67649 0.413411,-1.475125 v -1.700622 q -0.159727,0.13154 -0.544951,0.244288 -0.375828,0.112748 -0.845613,0.19731 -0.469785,0.08456 -0.930175,0.150331 -0.460389,0.06577 -0.798634,0.112748 -0.761052,0.103353 -1.362377,0.338246 -0.601325,0.234892 -0.948966,0.657699 -0.347641,0.413411 -0.347641,1.07111 0,0.93957 0.685886,1.418751 0.685886,0.479181 1.747601,0.479181 z"
           id="path870" />
        <path
           style="color:#000000;-inkscape-font-specification:'Inter Semi-Bold';fill:url(#linearGradient52871);stroke:none;-inkscape-stroke:none"
           d="m 46.214844,15.578125 c -1.105701,0 -2.142945,0.166723 -3.095703,0.509766 -8.79e-4,3.1e-4 -0.0011,0.0016 -0.002,0.002 -0.961509,0.340203 -1.808961,0.867948 -2.49414,1.574218 -6.18e-4,6.31e-4 -0.0013,0.0013 -0.002,0.002 -0.698208,0.714066 -1.194685,1.607179 -1.484375,2.621093 l -0.314453,1.103516 4.623046,0.65625 c -0.204486,0.04335 -0.42005,0.05972 -0.621093,0.111328 -0.739962,0.184991 -1.423065,0.464493 -2.03711,0.841797 -0.657767,0.404169 -1.198218,0.963968 -1.578125,1.636719 -0.407995,0.722491 -0.580078,1.574348 -0.580078,2.511718 0,1.093736 0.249548,2.099234 0.791016,2.931641 l 0.002,0.0039 0.002,0.002 c 0.526535,0.797545 1.264349,1.421174 2.146484,1.824219 l 0.0059,0.002 0.0039,0.0039 c 0.873933,0.388414 1.843718,0.574218 2.876953,0.574218 0.843322,0 1.617657,-0.115408 2.3125,-0.373047 h 0.002 l 0.0039,-0.002 c 0.396388,-0.149747 0.698167,-0.404754 1.033203,-0.623047 v 0.707032 H 53.0782 V 21.539062 c 0,-1.078812 -0.197535,-2.049998 -0.648438,-2.873046 -0.415027,-0.768268 -0.991815,-1.409333 -1.703125,-1.871094 -0.668232,-0.439965 -1.41,-0.757385 -2.205078,-0.945313 -0.762296,-0.180179 -1.533281,-0.271484 -2.30664,-0.271484 z m 0,2 c 0.617203,0 1.229963,0.07321 1.845703,0.21875 0.581512,0.137448 1.097526,0.359483 1.568359,0.669922 l 0.0039,0.002 0.002,0.002 c 0.42645,0.27649 0.763722,0.641428 1.037109,1.148438 l 0.002,0.002 0.002,0.0039 c 0.249261,0.45401 0.402344,1.077706 0.402344,1.914062 v 8.660157 h -1.269531 v -1.982422 h -0.896485 c 0.05714,-0.08015 0.162125,-0.118484 0.212891,-0.203125 0.365615,-0.599637 0.560547,-1.288495 0.560547,-1.992188 v -3.820312 l -0.705078,0.582031 c 0.375585,-0.355587 0.695312,-0.833341 0.695312,-1.318359 v -0.05664 c 0,-0.905449 -0.307262,-1.784857 -0.949219,-2.378906 -0.649031,-0.600597 -1.538928,-0.847656 -2.492187,-0.847656 -0.978448,0 -1.873107,0.21649 -2.580078,0.742187 l -0.002,0.002 -0.0039,0.002 c -0.354271,0.266855 -0.523471,0.666341 -0.765625,1.019532 L 41.65625,19.773437 c 0.141872,-0.223572 0.21526,-0.52382 0.396484,-0.708984 l 0.002,-0.002 0.002,-0.002 c 0.466072,-0.48127 1.026702,-0.839881 1.728515,-1.087891 l 0.0039,-0.002 h 0.002 c 0.711891,-0.256923 1.514736,-0.392578 2.423828,-0.392578 z m 0.01953,2.603516 c 0.625217,0 0.942496,0.140292 1.132812,0.316406 0.189401,0.175266 0.288268,0.405867 0.296875,0.873047 -0.07946,0.03346 -0.254804,0.108431 -0.630859,0.164062 -0.0019,2.55e-4 -0.0059,-2.55e-4 -0.0078,0 -0.0025,3.6e-4 -0.0014,0.0016 -0.0039,0.002 -0.510885,0.06677 -1.184355,0.143858 -2.019531,0.230469 H 45 c -0.338667,0.03629 -0.657965,0.120688 -0.988281,0.177734 l 0.208984,-0.607421 c 0.09885,-0.28922 0.280856,-0.543964 0.630859,-0.808594 0.2703,-0.200083 0.696914,-0.347656 1.382813,-0.347656 z m 2.339844,2.935546 -0.523438,0.431641 c 0.08981,-0.07397 5.51e-4,4.59e-4 -0.191406,0.05664 l -0.002,0.002 h -0.0039 c -0.206616,0.06198 -0.453644,0.120991 -0.736329,0.171875 -0.301624,0.05429 -0.599859,0.102435 -0.894531,0.144531 -0.305982,0.04371 -0.569222,0.08025 -0.792969,0.111328 -0.571909,0.0778 -1.102646,0.206173 -1.589843,0.396485 -0.527212,0.205941 -0.998341,0.523771 -1.351563,0.951171 -0.397887,0.475108 -0.580078,1.095799 -0.580078,1.708985 0,0.869712 0.40448,1.745044 1.113281,2.240234 0.65584,0.45819 1.462061,0.658203 2.320313,0.658203 0.665004,0 1.262185,-0.192018 1.835937,-0.427734 -0.0169,0.01634 -0.02158,0.0325 -0.03906,0.04883 -0.257974,0.240485 -0.603277,0.455829 -1.064453,0.630859 -9.92e-4,3.68e-4 -0.0029,-3.66e-4 -0.0039,0 -9.98e-4,3.78e-4 -9.53e-4,0.0016 -0.002,0.002 -0.419409,0.154718 -0.953795,0.246093 -1.611328,0.246093 -0.793476,0 -1.468025,-0.138855 -2.058594,-0.40039 -0.567464,-0.260083 -0.978568,-0.613843 -1.302734,-1.103516 -0.296777,-0.457531 -0.466797,-1.04155 -0.466797,-1.837891 0,-0.691216 0.126983,-1.184989 0.320313,-1.527343 0.221418,-0.392095 0.502743,-0.683232 0.884765,-0.917969 0.425747,-0.261603 0.913655,-0.464741 1.476563,-0.605469 h 0.002 l 0.0039,-0.002 c 0.608033,-0.156351 1.238515,-0.269582 1.892578,-0.339844 0.851175,-0.08827 1.543596,-0.167515 2.083985,-0.238281 h 0.0059 l 0.0059,-0.002 c 0.493046,-0.07043 0.882917,-0.208603 1.269532,-0.398438 z m -0.888672,2.580079 v 0.324218 c 0,0.359874 -0.08132,0.651537 -0.265625,0.953125 l -0.0039,0.0059 -0.002,0.0039 c -0.173746,0.290924 -0.411533,0.52091 -0.771484,0.720703 -4.79e-4,2.58e-4 -0.0015,-2.57e-4 -0.002,0 -0.334037,0.179204 -0.748363,0.285156 -1.298828,0.285156 -0.557367,0 -0.917107,-0.11811 -1.175781,-0.298828 -0.205713,-0.143717 -0.257813,-0.216563 -0.257813,-0.599609 0,-0.262275 0.04769,-0.350102 0.111328,-0.425781 l 0.0039,-0.0059 0.0039,-0.0039 c 0.109816,-0.133561 0.268707,-0.254958 0.541015,-0.361328 0.314005,-0.122658 0.690744,-0.219263 1.132813,-0.279297 h 0.002 c 0.227247,-0.03156 0.494865,-0.0693 0.802734,-0.113281 0.319182,-0.0456 0.642042,-0.09779 0.966797,-0.15625 0.07655,-0.01378 0.138898,-0.03386 0.212891,-0.04883 z"
           id="path872" />
      </g>
      <g
         id="path843">
        <path
           style="color:#000000;-inkscape-font-specification:'Inter Semi-Bold';stroke:none;-inkscape-stroke:none"
           d="M 54.977875,31.19861 V 16.766811 h 3.250913 v 2.452278 h 0.169123 q 0.450994,-1.240233 1.493917,-1.935515 1.042923,-0.704678 2.489861,-0.704678 1.46573,0 2.47107,0.714074 1.014736,0.704678 1.428147,1.926119 h 0.150331 q 0.479181,-1.20265 1.616061,-1.916723 1.146276,-0.72347 2.715358,-0.72347 1.991889,0 3.250913,1.259025 1.259024,1.259024 1.259024,3.67372 v 9.686969 h -3.41064 V 22.0378 q 0,-1.343586 -0.714073,-1.963702 -0.714074,-0.629512 -1.747601,-0.629512 -1.230837,0 -1.926119,0.770448 -0.685886,0.761051 -0.685886,1.982493 v 9.001083 h -3.335475 v -9.301746 q 0,-1.118088 -0.676491,-1.785183 -0.667094,-0.667095 -1.7476,-0.667095 -0.732865,0 -1.33419,0.375828 -0.601325,0.366432 -0.958362,1.042923 -0.357037,0.667095 -0.357037,1.559687 v 8.775586 z"
           id="path876" />
        <path
           style="color:#000000;-inkscape-font-specification:'Inter Semi-Bold';fill:url(#linearGradient52871);stroke:none;-inkscape-stroke:none"
           d="m 62.380859,15.578125 c -1.125436,0 -2.172585,0.286727 -3.044922,0.875 -0.04961,0.03312 -0.05927,0.103841 -0.107421,0.138672 v -0.824219 h -5.25 v 16.431641 h 1 4.40039 v -9.775391 c 0,-0.461727 0.08782,-0.806759 0.238281,-1.087891 l 0.002,-0.0039 0.002,-0.002 c 0.164644,-0.311958 0.35128,-0.508495 0.59375,-0.65625 l 0.0039,-0.002 0.0059,-0.0039 c 0.246052,-0.153783 0.487052,-0.222657 0.804688,-0.222657 0.51454,0 0.785219,0.119204 1.039062,0.373047 l 0.0039,0.002 0.002,0.0039 c 0.252111,0.24861 0.378906,0.528555 0.378906,1.072265 V 32.199177 H 67.78923 V 22.197266 c 10e-7,-0.627115 0.148591,-1.002766 0.427735,-1.3125 0.266888,-0.295742 0.571688,-0.439454 1.183594,-0.439454 0.485987,0 0.789411,0.117496 1.085937,0.378907 l 0.0039,0.002 0.002,0.0039 c 0.206089,0.178972 0.369141,0.488464 0.369141,1.207031 v 10.16211 h 5.412109 v -10.6875 c 0,-1.783596 -0.487358,-3.315483 -1.552734,-4.38086 -1.025799,-1.0258 -2.420368,-1.552734 -3.958984,-1.552734 -1.199747,0 -2.309706,0.286674 -3.248047,0.878906 -0.490115,0.308197 -0.905498,0.695609 -1.257813,1.132813 -0.287362,-0.367803 -0.440302,-0.84308 -0.828125,-1.113282 -0.856631,-0.607179 -1.90891,-0.898437 -3.046875,-0.898437 z m 0,2 c 0.81476,0 1.409404,0.186107 1.892578,0.529297 l 0.0039,0.0039 0.0059,0.0039 c 0.506411,0.351675 0.836107,0.789565 1.050781,1.423828 l 0.230469,0.679688 h 0.773438 c -0.329034,0.595689 -0.548829,1.254662 -0.548829,1.978516 v 8.001953 h -1.335937 v -8.302735 c 0,-0.947072 -0.324734,-1.855244 -0.974609,-2.496093 -0.63529,-0.63229 -1.525537,-0.955079 -2.449219,-0.955079 -0.376998,0 -0.711754,0.185375 -1.066406,0.300782 0.167222,-0.198253 0.256373,-0.478858 0.484375,-0.63086 l 0.002,-0.002 0.002,-0.002 c 0.517522,-0.349677 1.127401,-0.533203 1.929687,-0.533203 z m 8.38086,0 c 1.117233,0 1.892024,0.313899 2.544922,0.966797 0.61332,0.613321 0.966796,1.530801 0.966796,2.966797 v 8.6875 h -1.412109 v -8.16211 c 0,-1.070272 -0.312593,-2.064919 -1.054687,-2.71289 -0.655397,-0.577129 -1.514841,-0.878907 -2.40625,-0.878907 -0.444999,0 -0.868894,0.100849 -1.273438,0.238282 0.165601,-0.164818 0.231352,-0.395861 0.453125,-0.535157 0.590025,-0.372393 1.28928,-0.570312 2.181641,-0.570312 z m -14.783203,0.189453 h 1.25 v 2.451172 h 0.787109 c -0.04294,0.07035 -0.125384,0.104449 -0.164063,0.177734 -0.323592,0.607044 -0.472656,1.301096 -0.472656,2.027344 v 7.775391 h -1.40039 z"
           id="path878" />
      </g>
      <g
         id="path845">
        <path
           style="color:#000000;-inkscape-font-specification:'Inter Semi-Bold';stroke:none;-inkscape-stroke:none"
           d="m 88.392391,31.489877 q -1.371772,0 -2.471069,-0.488576 -1.089902,-0.497973 -1.72881,-1.46573 Q 83.563,28.567813 83.563,27.149062 q 0,-1.221441 0.450994,-2.020076 0.450994,-0.798635 1.230837,-1.277815 0.779843,-0.479181 1.756996,-0.72347 0.986549,-0.253684 2.038868,-0.366432 1.26842,-0.13154 2.057659,-0.234893 0.789239,-0.112748 1.146276,-0.338245 0.366432,-0.234892 0.366432,-0.723469 v -0.05637 q 0,-1.061715 -0.629512,-1.644248 -0.629512,-0.582534 -1.813371,-0.582534 -1.249628,0 -1.982493,0.544951 -0.723469,0.544951 -0.977153,1.287211 l -3.175748,-0.450993 q 0.375828,-1.315399 1.240233,-2.198595 0.864405,-0.892592 2.114033,-1.33419 1.249629,-0.450994 2.762337,-0.450994 1.042923,0 2.07645,0.244289 1.033528,0.244288 1.888537,0.80803 0.855009,0.554347 1.371772,1.512708 0.52616,0.958362 0.52616,2.395905 v 9.658782 h -3.269705 v -1.982493 h -0.112749 q -0.310058,0.601325 -0.8738,1.127484 -0.554346,0.516764 -1.39996,0.836218 -0.836217,0.310058 -1.963702,0.310058 z m 0.883197,-2.499257 q 1.024131,0 1.775787,-0.404015 0.751657,-0.413411 1.155672,-1.089902 0.413411,-0.67649 0.413411,-1.475125 v -1.700622 q -0.159727,0.13154 -0.544951,0.244288 -0.375828,0.112748 -0.845613,0.19731 -0.469785,0.08456 -0.930175,0.150331 -0.460389,0.06577 -0.798635,0.112748 -0.761052,0.103353 -1.362377,0.338246 -0.601325,0.234892 -0.948966,0.657699 -0.347641,0.413411 -0.347641,1.07111 0,0.93957 0.685887,1.418751 0.685886,0.479181 1.747601,0.479181 z"
           id="path882" />
        <path
           style="color:#000000;-inkscape-font-specification:'Inter Semi-Bold';fill:url(#linearGradient52871);stroke:none;-inkscape-stroke:none"
           d="m 90.148437,15.578125 c -1.105021,0 -2.141472,0.167152 -3.09375,0.509766 -5.38e-4,1.9e-4 -0.0014,-1.91e-4 -0.002,0 -0.96193,0.340189 -1.808719,0.869651 -2.49414,1.576171 -6.18e-4,6.31e-4 -0.0013,0.0013 -0.002,0.002 -0.698209,0.714066 -1.196639,1.607179 -1.486329,2.621093 l -0.314453,1.103516 4.623047,0.65625 c -0.203863,0.04322 -0.418699,0.0599 -0.61914,0.111328 -6.06e-4,1.52e-4 -0.0013,-1.51e-4 -0.002,0 -0.0019,5e-4 -0.0039,0.0015 -0.0059,0.002 -0.736886,0.185002 -1.419424,0.463902 -2.03125,0.839844 -0.657767,0.404169 -1.198218,0.963968 -1.578125,1.636719 -0.407995,0.722491 -0.580078,1.574348 -0.580078,2.511718 0,1.093736 0.249548,2.099234 0.791016,2.931641 l 0.002,0.0039 0.002,0.002 c 0.526535,0.797545 1.266302,1.421174 2.148437,1.824219 l 0.0039,0.002 0.0059,0.0039 c 0.873933,0.388414 1.843718,0.574218 2.876953,0.574218 0.843319,0 1.6157,-0.115407 2.310547,-0.373047 h 0.0039 l 0.002,-0.002 c 0.396389,-0.149747 0.698168,-0.404754 1.033203,-0.623047 v 0.707032 h 5.269532 V 21.539062 c 0,-1.078812 -0.195582,-2.049998 -0.646485,-2.873046 -0.415027,-0.76827 -0.993767,-1.409332 -1.705078,-1.871094 -0.668232,-0.439966 -1.41,-0.757385 -2.205078,-0.945313 -0.762296,-0.180179 -1.533281,-0.271484 -2.306641,-0.271484 z m 0,2 c 0.617204,0 1.231918,0.07321 1.847657,0.21875 0.581513,0.137448 1.097526,0.359483 1.568359,0.669922 l 0.002,0.002 0.0039,0.002 c 0.426451,0.27649 0.761769,0.641428 1.035157,1.148438 l 0.002,0.002 0.002,0.0039 c 0.249261,0.45401 0.402344,1.077706 0.402344,1.914062 v 8.660157 h -1.269532 v -1.982422 h -0.894531 c 0.05714,-0.08015 0.162125,-0.118484 0.212891,-0.203125 0.365615,-0.599637 0.560547,-1.288495 0.560547,-1.992188 v -3.820312 l -0.705078,0.580078 c 0.374802,-0.355618 0.695312,-0.83195 0.695312,-1.316406 v -0.05664 c 0,-0.905449 -0.309215,-1.784857 -0.951172,-2.378906 -0.649032,-0.600597 -1.538928,-0.847656 -2.492187,-0.847656 -0.978448,0 -1.871154,0.216491 -2.578125,0.742187 l -0.0039,0.002 -0.002,0.002 c -0.354083,0.266713 -0.523531,0.66657 -0.765625,1.019532 l -1.228515,-0.173829 c 0.141944,-0.223759 0.217085,-0.523689 0.398437,-0.708984 l 0.002,-0.002 0.002,-0.002 c 0.466072,-0.48127 1.026703,-0.839881 1.728516,-1.087891 l 0.002,-0.002 h 0.0039 c 0.711892,-0.256923 1.512783,-0.392578 2.421875,-0.392578 z m 0.01953,2.603516 c 0.625217,0 0.944449,0.140292 1.134765,0.316406 0.189401,0.175266 0.288267,0.405867 0.296875,0.873047 -0.07946,0.03346 -0.254804,0.108431 -0.630859,0.164062 -0.0019,2.55e-4 -0.0059,-2.55e-4 -0.0078,0 -0.0025,3.6e-4 -0.0014,0.0016 -0.0039,0.002 -0.510885,0.06677 -1.184355,0.143858 -2.019531,0.230469 h -0.002 -0.002 c -0.338667,0.03629 -0.657965,0.120688 -0.988282,0.177734 l 0.208985,-0.607421 c 0.09885,-0.28922 0.280856,-0.543964 0.630859,-0.808594 0.270241,-0.200493 0.696004,-0.347656 1.382813,-0.347656 z m 2.339843,2.9375 -0.523437,0.429687 c 0.08981,-0.07397 0.0025,4.59e-4 -0.189453,0.05664 l -0.0039,0.002 h -0.002 c -0.206615,0.06198 -0.453643,0.120991 -0.736328,0.171875 -0.301624,0.05429 -0.599859,0.102435 -0.894531,0.144531 -0.305982,0.04371 -0.571175,0.08025 -0.794922,0.111328 -0.571152,0.07783 -1.101256,0.206393 -1.58789,0.396485 -0.527722,0.20614 -1.000184,0.52314 -1.353516,0.951171 -0.397887,0.475108 -0.580078,1.095799 -0.580078,1.708985 0,0.869713 0.40448,1.745044 1.113281,2.240234 0.655839,0.45819 1.462061,0.658203 2.320313,0.658203 0.665127,0 1.264054,-0.191928 1.83789,-0.427734 -0.01692,0.01636 -0.02156,0.03248 -0.03906,0.04883 -0.257975,0.240486 -0.605225,0.455828 -1.066407,0.630859 -9.92e-4,3.69e-4 -0.0029,-3.67e-4 -0.0039,0 -9.97e-4,3.78e-4 -9.55e-4,0.0016 -0.002,0.002 -0.419407,0.154717 -0.951844,0.246093 -1.609375,0.246093 -0.794342,0 -1.469519,-0.140253 -2.060547,-0.402343 -0.566812,-0.260026 -0.976855,-0.612255 -1.300781,-1.101563 -0.296778,-0.457531 -0.46875,-1.04155 -0.46875,-1.837891 0,-0.691216 0.128936,-1.184989 0.322266,-1.527343 0.221418,-0.392095 0.500789,-0.683232 0.882812,-0.917969 0.425746,-0.261603 0.913655,-0.464741 1.476563,-0.605469 h 0.0039 l 0.002,-0.002 c 0.608641,-0.156508 1.239767,-0.269599 1.894531,-0.339844 0.851174,-0.08827 1.543596,-0.167515 2.083985,-0.238281 h 0.0059 l 0.0059,-0.002 c 0.492139,-0.07031 0.881565,-0.207377 1.267578,-0.396484 z m -0.886718,2.576171 v 0.326172 c 0,0.359874 -0.08327,0.651537 -0.267578,0.953125 l -0.002,0.0059 -0.0039,0.0039 c -0.173744,0.290921 -0.409587,0.520912 -0.769531,0.720703 -4.78e-4,2.57e-4 -0.0015,-2.57e-4 -0.002,0 -0.334036,0.179205 -0.750315,0.285156 -1.300781,0.285156 -0.557367,0 -0.915154,-0.11811 -1.173829,-0.298828 -0.205713,-0.143717 -0.259765,-0.216563 -0.259765,-0.599609 0,-0.262275 0.04964,-0.350102 0.113281,-0.425781 l 0.0039,-0.0059 0.0039,-0.0039 c 0.109816,-0.133561 0.266754,-0.254958 0.539062,-0.361328 0.314005,-0.122658 0.690744,-0.219263 1.132813,-0.279297 h 0.002 0.002 c 0.227247,-0.03156 0.494865,-0.0693 0.802734,-0.113281 0.319181,-0.0456 0.640089,-0.09779 0.964844,-0.15625 0.07722,-0.0139 0.140223,-0.03567 0.214844,-0.05078 z"
           id="path884" />
      </g>
      <g
         id="path847">
        <path
           style="color:#000000;-inkscape-font-specification:'Inter Semi-Bold';stroke:none;-inkscape-stroke:none"
           d="M 102.31381,11.956211 V 31.19861 H 98.912564 V 11.956211 Z"
           id="path888" />
        <path
           style="color:#000000;-inkscape-font-specification:'Inter Semi-Bold';fill:url(#linearGradient52871);stroke:none;-inkscape-stroke:none"
           d="m 97.912109,10.957031 v 21.242188 h 5.402341 V 10.957031 h -1 z m 2,2 h 1.402341 v 17.242188 h -1.402341 z"
           id="path890" />
      </g>
      <g
         id="path849">
        <path
           style="color:#000000;-inkscape-font-specification:'Inter Semi-Bold';stroke:none;-inkscape-stroke:none"
           d="m 111.6689,31.480481 q -2.17041,0 -3.74889,-0.901987 -1.56908,-0.911383 -2.41469,-2.574423 -0.84562,-1.672435 -0.84562,-3.936799 0,-2.226782 0.84562,-3.908613 0.85501,-1.691226 2.38651,-2.630797 1.53149,-0.948966 3.59855,-0.948966 1.33419,0 2.51805,0.432203 1.19325,0.422806 2.10464,1.315398 0.92077,0.892592 1.44693,2.27376 0.52616,1.371773 0.52616,3.269705 v 1.042923 h -11.82919 v -2.292552 h 8.56888 q -0.009,-0.977153 -0.4228,-1.738205 -0.41341,-0.770447 -1.15567,-1.212045 -0.73287,-0.441598 -1.71002,-0.441598 -1.04293,0 -1.83216,0.507368 -0.78924,0.497972 -1.23084,1.315398 -0.4322,0.808031 -0.4416,1.775788 v 2.001285 q 0,1.259024 0.46039,2.161011 0.46039,0.892592 1.28721,1.371773 0.82682,0.469785 1.93552,0.469785 0.74226,0 1.34358,-0.206705 0.60133,-0.216101 1.04292,-0.629512 0.4416,-0.413411 0.6671,-1.024132 l 3.17575,0.357037 q -0.30067,1.259024 -1.14628,2.198594 -0.83622,0.930175 -2.14222,1.446938 -1.306,0.507368 -2.98783,0.507368 z"
           id="path894" />
        <path
           style="color:#000000;-inkscape-font-specification:'Inter Semi-Bold';fill:url(#linearGradient52871);stroke:none;-inkscape-stroke:none"
           d="m 111.49023,15.578125 c -1.53106,0 -2.93278,0.360867 -4.125,1.099609 -1.17652,0.72275 -2.10779,1.755134 -2.75195,3.029297 v 0.002 h -0.002 c -0.64332,1.279469 -0.95117,2.746319 -0.95117,4.357422 0,1.634057 0.30737,3.111537 0.95312,4.388672 v 0.002 c 0.64355,1.265655 1.59767,2.285245 2.80469,2.986328 l 0.002,0.002 0.004,0.002 c 1.22374,0.699279 2.65867,1.033203 4.24414,1.033203 1.22178,0 2.34584,-0.185458 3.35156,-0.576172 h 0.002 l 0.004,-0.002 c 0.99364,-0.393168 1.84861,-0.962902 2.51758,-1.707032 0.67289,-0.747659 1.13841,-1.644073 1.375,-2.634765 l 0.26172,-1.09961 -4.86914,-0.548828 h 4.77539 v -2.042968 c 0,-1.356984 -0.18624,-2.566902 -0.5918,-3.625 v -0.002 c -0.39431,-1.034457 -0.95535,-1.924965 -1.68555,-2.632812 -0.70468,-0.689268 -1.53625,-1.208377 -2.46093,-1.537109 -0.90188,-0.328759 -1.86131,-0.494141 -2.85743,-0.494141 z m 0,2 c 0.78148,0 1.50022,0.126413 2.17579,0.373047 h 0.004 l 0.004,0.002 c 0.66223,0.234651 1.23211,0.590251 1.74023,1.087891 l 0.002,0.002 0.002,0.002 c 0.49711,0.481901 0.89983,1.105706 1.20703,1.912109 l 0.002,0.002 c 0.29555,0.770536 0.45899,1.737279 0.45899,2.910157 v 0.04297 h -8.05274 v -0.291015 h 6.80274 l -0.01,-1.009766 c -0.007,-0.789525 -0.18532,-1.542993 -0.54492,-2.205078 -0.35493,-0.65934 -0.879,-1.209528 -1.51953,-1.591797 -0.6565,-0.395134 -1.42319,-0.585937 -2.22461,-0.585937 -0.8553,0 -1.6736,0.219718 -2.36719,0.664062 -0.66272,0.418712 -1.20416,0.994991 -1.57617,1.683594 v 0.002 l -0.002,0.002 c -0.16991,0.317657 -0.16712,0.693492 -0.25977,1.041016 h -1.15039 c 0.10168,-0.31291 0.0752,-0.729956 0.2168,-1.011719 v -0.002 c 0.4951,-0.978757 1.1523,-1.696914 2.01562,-2.226563 l 0.002,-0.002 0.002,-0.002 c 0.84976,-0.526544 1.84726,-0.798828 3.07226,-0.798828 z m 0.0469,2.650391 c 0.50079,0 0.87306,0.105828 1.19336,0.298828 h 0.004 l 0.002,0.002 c 0.34533,0.205452 0.58981,0.462114 0.78515,0.826172 l 0.002,0.002 0.002,0.002 c 0.0395,0.07265 0.0305,0.184114 0.0625,0.261719 h -4.25586 c 0.0139,-0.02839 0.007,-0.06564 0.0215,-0.09375 l 0.002,-0.002 c 2.9e-4,-5.55e-4 -3e-4,-0.0014 0,-0.002 0.21606,-0.398527 0.49556,-0.69707 0.88281,-0.941406 l 0.004,-0.002 0.004,-0.0039 c 0.35761,-0.229895 0.75789,-0.347656 1.29102,-0.347656 z m -5.48633,5.683593 h 1.21875 c 0.0898,0.52184 0.1022,1.080961 0.33203,1.53125 l 0.002,0.002 v 0.002 c 0.3853,0.747021 0.96117,1.365148 1.67578,1.779296 l 0.004,0.002 0.004,0.002 c 0.71813,0.408031 1.54931,0.599609 2.42969,0.599609 0.58766,0 1.14746,-0.08084 1.66797,-0.259766 l 0.006,-0.002 0.008,-0.0039 c 0.51856,-0.186357 0.99046,-0.468876 1.38672,-0.839844 0.20289,-0.189942 0.30237,-0.46074 0.45507,-0.693359 l 1.17579,0.130859 c -0.132,0.222468 -0.18202,0.496076 -0.36133,0.695313 -0.44543,0.49547 -1.01738,0.887873 -1.76367,1.183594 -9.6e-4,3.77e-4 -0.001,0.0016 -0.002,0.002 -0.73453,0.284517 -1.60277,0.4375 -2.62109,0.4375 -1.306,0 -2.36615,-0.266006 -3.24609,-0.767578 -0.88427,-0.513614 -1.53964,-1.209788 -2.02344,-2.160157 -0.22671,-0.448377 -0.22402,-1.101482 -0.34766,-1.640625 z m 3.20508,0 h 4.83984 L 113.83203,26.625 c -0.10226,0.276949 -0.23506,0.474882 -0.41211,0.640625 -0.19024,0.178098 -0.41301,0.310728 -0.6914,0.412109 -0.28028,0.09568 -0.61197,0.152344 -1.01172,0.152344 -0.59541,0 -1.05419,-0.119301 -1.4375,-0.335937 -0.38534,-0.223876 -0.66684,-0.519143 -0.89453,-0.958985 v -0.002 c -4.8e-4,-9.26e-4 -0.001,-0.001 -0.002,-0.002 -0.0801,-0.157423 -0.0728,-0.427718 -0.12695,-0.619141 z"
           id="path896" />
      </g>
      <g
         id="path851">
        <path
           style="color:#000000;-inkscape-font-specification:'Inter Semi-Bold';stroke:none;-inkscape-stroke:none"
           d="M 120.43206,31.19861 V 16.766811 h 3.29789 v 2.405299 h 0.15033 q 0.39462,-1.249628 1.35298,-1.926119 0.96776,-0.685886 2.20799,-0.685886 0.28187,0 0.62951,0.02819 0.35704,0.01879 0.59193,0.06577 v 3.128769 q -0.2161,-0.07517 -0.68588,-0.13154 -0.46039,-0.06577 -0.8926,-0.06577 -0.93017,0 -1.67243,0.404016 -0.73287,0.394619 -1.15567,1.099297 -0.42281,0.704678 -0.42281,1.625457 v 8.484319 z"
           id="path900" />
        <path
           style="color:#000000;-inkscape-font-specification:'Inter Semi-Bold';fill:url(#linearGradient52871);stroke:none;-inkscape-stroke:none"
           d="m 127.44141,15.560547 c -0.98356,0 -1.91525,0.302331 -2.71094,0.845703 v -0.638672 h -5.29883 v 16.431641 h 1 4.40234 v -9.484375 c 0,-0.46079 0.0963,-0.806317 0.2793,-1.111328 0.19309,-0.321821 0.43295,-0.551038 0.77344,-0.734375 h 0.002 l 0.002,-0.002 c 0.34078,-0.185489 0.71802,-0.281249 1.19335,-0.28125 0.23742,0 0.4884,0.01704 0.75196,0.05469 l 0.01,0.002 0.0117,0.002 c 0.27899,0.03348 0.47161,0.08031 0.47656,0.08203 l 1.32813,0.462891 v -5.355469 l -0.80274,-0.160156 c -0.22396,-0.04479 -0.4608,-0.06774 -0.72656,-0.08203 -0.003,-2.77e-4 -0.006,-0.0017 -0.01,-0.002 -0.2416,-0.01894 -0.46952,-0.0293 -0.68164,-0.0293 z m 0,2 c 0.0621,0 0.14924,0.0071 0.2207,0.0098 v 1.058594 c -0.19291,-0.01582 -0.38886,-0.04297 -0.57813,-0.04297 -0.70024,0 -1.3615,0.185038 -1.96875,0.480469 0.19347,-0.38254 0.37157,-0.775379 0.69532,-1.003906 0.48075,-0.340725 0.98838,-0.501953 1.63086,-0.501953 z m -6.00977,0.207031 h 1.29883 v 2.404297 h 1.08984 c -0.12479,0.151466 -0.32018,0.232849 -0.42187,0.402344 -0.38074,0.634558 -0.56446,1.37371 -0.56446,2.140625 v 7.484375 h -1.40234 z"
           id="path902" />
      </g>
      <g
         id="path853">
        <path
           style="color:#000000;-inkscape-font-specification:'Inter Semi-Bold';stroke:none;-inkscape-stroke:none"
           d="m 138.38423,16.766811 v 2.630796 h -8.29641 v -2.630796 z m -6.24815,-3.457619 h 3.40125 v 13.548604 q 0,0.685886 0.2067,1.052318 0.21611,0.357037 0.56375,0.488577 0.34764,0.13154 0.77044,0.13154 0.31946,0 0.58254,-0.04698 0.27247,-0.04698 0.41341,-0.08456 l 0.57314,2.658984 q -0.27248,0.09396 -0.77985,0.206705 -0.49797,0.112749 -1.22144,0.13154 -1.27781,0.03758 -2.30194,-0.385224 -1.02414,-0.432202 -1.62546,-1.33419 -0.59193,-0.901987 -0.58254,-2.254968 z"
           id="path906" />
        <path
           style="color:#000000;-inkscape-font-specification:'Inter Semi-Bold';fill:url(#linearGradient52871);stroke:none;-inkscape-stroke:none"
           d="m 131.13672,12.308594 v 1 2.458984 h -2.04883 v 4.630859 h 2.04883 v 7.015625 c -0.007,1.049352 0.22431,2.015447 0.74609,2.810547 l 0.002,0.0039 0.002,0.002 c 0.50533,0.758004 1.2206,1.343407 2.06836,1.701172 l 0.004,0.002 0.004,0.002 c 0.82801,0.341837 1.74302,0.487508 2.71289,0.458984 l -0.004,0.002 c 0.52682,-0.01368 0.99099,-0.06122 1.41211,-0.15625 0.35867,-0.0797 0.64272,-0.151514 0.88868,-0.236328 l 0.83984,-0.289062 -0.98242,-4.552735 -1.01367,0.269532 c -0.0392,0.01045 -0.16008,0.03777 -0.32618,0.06641 h -0.002 -0.004 c -0.10642,0.01901 -0.24229,0.03125 -0.40625,0.03125 -0.17816,0 -0.30975,-0.0262 -0.41601,-0.06641 -0.0123,-0.0047 -0.0257,-0.02031 -0.0488,-0.05469 -0.009,-0.01777 -0.0762,-0.200246 -0.0762,-0.550781 v -6.458985 h 2.84766 v -4.630859 h -1 -1.84766 v -3.458984 z m 2,2 h 1.40039 v 1.458984 h -1.40039 z m -2.04883,3.458984 h 0.0488 v 0.630859 h -0.0488 z m 2.04883,0 h 1.40039 v 0.630859 h -1.40039 z m 3.40039,0 h 0.84766 v 0.630859 h -0.84766 z m -3.40039,2.630859 h 1.40039 v 6.458985 c 0,0.557711 0.067,1.068085 0.33594,1.544922 l 0.008,0.01172 0.008,0.01367 c 0.2389,0.394692 0.61676,0.73685 1.06445,0.90625 0.35727,0.13518 0.73943,0.195313 1.125,0.195313 0.0736,0 0.14082,-0.01446 0.2129,-0.01758 l 0.17187,0.796875 c -0.22943,0.04054 -0.48538,0.07858 -0.84375,0.08789 h -0.002 c -0.73314,0.02156 -1.35155,-0.08909 -1.88867,-0.310547 h -0.002 c -0.51258,-0.217676 -0.87723,-0.522299 -1.17187,-0.96289 -0.2664,-0.407225 -0.4232,-0.942327 -0.41797,-1.695313 v -0.002 z"
           id="path908" />
      </g>
    </g>
    <g
       aria-label="scam alert"
       id="text36856"
       style="font-size:26.4583px;font-family:Montserrat;-inkscape-font-specification:Montserrat;letter-spacing:-0.529167px;fill:url(#linearGradient41515);stroke-width:0.264583">
      <path
         d="m 22.966339,20.581466 -3.100582,0.338245 q -0.13154,-0.469785 -0.460389,-0.883196 -0.319454,-0.413411 -0.864405,-0.667095 -0.544951,-0.253684 -1.33419,-0.253684 -1.061714,0 -1.785183,0.46039 -0.714074,0.460389 -0.704678,1.193254 -0.0094,0.629512 0.460389,1.024132 0.479181,0.394619 1.578479,0.648303 l 2.461674,0.526159 q 2.048263,0.441599 3.044208,1.39996 1.00534,0.958362 1.014735,2.508653 -0.0094,1.362377 -0.798634,2.4053 -0.779844,1.033527 -2.170408,1.616061 -1.390564,0.582533 -3.194539,0.582533 -2.649588,0 -4.265649,-1.108693 -1.616061,-1.118088 -1.926119,-3.109977 l 3.316683,-0.319454 q 0.225497,0.977153 0.958362,1.475125 0.732865,0.497972 1.907328,0.497972 1.212045,0 1.94491,-0.497972 0.742261,-0.497972 0.742261,-1.230837 0,-0.620116 -0.479181,-1.024132 -0.469785,-0.404015 -1.46573,-0.620116 l -2.461674,-0.516764 q -2.07645,-0.432202 -3.072395,-1.456334 -0.995944,-1.033527 -0.986549,-2.612005 -0.0094,-1.33419 0.723469,-2.311343 0.742261,-0.986549 2.057659,-1.522104 1.324794,-0.544951 3.053604,-0.544951 2.53684,0 3.993174,1.080506 1.465729,1.080506 1.81337,2.922064 z"
         style="-inkscape-font-specification:'Inter Semi-Bold'"
         id="path910" />
      <path
         d="m 31.851662,31.480481 q -2.161012,0 -3.711303,-0.948966 -1.540895,-0.948966 -2.377113,-2.621401 -0.826822,-1.681831 -0.826822,-3.871029 0,-2.198595 0.845614,-3.880426 0.845613,-1.691226 2.386508,-2.630797 1.550291,-0.948966 3.664324,-0.948966 1.756997,0 3.109978,0.648304 1.362377,0.638908 2.170407,1.813371 0.808031,1.165067 0.920779,2.724753 h -3.250913 q -0.19731,-1.042923 -0.93957,-1.738205 -0.732865,-0.704677 -1.963702,-0.704677 -1.042923,0 -1.832162,0.563742 -0.789239,0.554346 -1.230837,1.597269 -0.432203,1.042923 -0.432203,2.499257 0,1.475126 0.432203,2.53684 0.432202,1.052319 1.212045,1.625457 0.789239,0.563742 1.850954,0.563742 0.751656,0 1.343585,-0.281871 0.601325,-0.291267 1.005341,-0.836218 0.404015,-0.54495 0.554346,-1.324794 h 3.250913 q -0.122144,1.5315 -0.901987,2.715358 -0.779844,1.174463 -2.123429,1.841558 -1.343586,0.657699 -3.156956,0.657699 z"
         style="-inkscape-font-specification:'Inter Semi-Bold'"
         id="path912" />
      <path
         d="m 44.457707,31.489877 q -1.371773,0 -2.47107,-0.488576 -1.089902,-0.497973 -1.72881,-1.46573 -0.629512,-0.967758 -0.629512,-2.386509 0,-1.221441 0.450994,-2.020076 0.450994,-0.798635 1.230837,-1.277815 0.779844,-0.479181 1.756997,-0.72347 0.986548,-0.253684 2.038867,-0.366432 1.26842,-0.13154 2.057659,-0.234893 0.789239,-0.112748 1.146276,-0.338245 0.366432,-0.234892 0.366432,-0.723469 v -0.05637 q 0,-1.061715 -0.629512,-1.644248 -0.629512,-0.582534 -1.81337,-0.582534 -1.249629,0 -1.982494,0.544951 -0.723469,0.544951 -0.977153,1.287211 L 40.0981,20.562675 q 0.375829,-1.315399 1.240233,-2.198595 0.864405,-0.892592 2.114033,-1.33419 1.249629,-0.450994 2.762337,-0.450994 1.042923,0 2.076451,0.244289 1.033527,0.244288 1.888536,0.80803 0.855009,0.554347 1.371772,1.512708 0.52616,0.958362 0.52616,2.395905 v 9.658782 h -3.269705 v -1.982493 h -0.112748 q -0.310058,0.601325 -0.873801,1.127484 -0.554346,0.516764 -1.399959,0.836218 -0.836218,0.310058 -1.963702,0.310058 z m 0.883196,-2.499257 q 1.024131,0 1.775788,-0.404015 0.751656,-0.413411 1.155671,-1.089902 0.413411,-0.67649 0.413411,-1.475125 v -1.700622 q -0.159727,0.13154 -0.544951,0.244288 -0.375828,0.112748 -0.845613,0.19731 -0.469785,0.08456 -0.930175,0.150331 -0.460389,0.06577 -0.798634,0.112748 -0.761052,0.103353 -1.362377,0.338246 -0.601325,0.234892 -0.948966,0.657699 -0.347641,0.413411 -0.347641,1.07111 0,0.93957 0.685886,1.418751 0.685886,0.479181 1.747601,0.479181 z"
         style="-inkscape-font-specification:'Inter Semi-Bold'"
         id="path914" />
      <path
         d="M 54.977875,31.19861 V 16.766811 h 3.250913 v 2.452278 h 0.169123 q 0.450994,-1.240233 1.493917,-1.935515 1.042923,-0.704678 2.489861,-0.704678 1.46573,0 2.47107,0.714074 1.014736,0.704678 1.428147,1.926119 h 0.150331 q 0.479181,-1.20265 1.616061,-1.916723 1.146276,-0.72347 2.715358,-0.72347 1.991889,0 3.250913,1.259025 1.259024,1.259024 1.259024,3.67372 v 9.686969 h -3.41064 V 22.0378 q 0,-1.343586 -0.714073,-1.963702 -0.714074,-0.629512 -1.747601,-0.629512 -1.230837,0 -1.926119,0.770448 -0.685886,0.761051 -0.685886,1.982493 v 9.001083 h -3.335475 v -9.301746 q 0,-1.118088 -0.676491,-1.785183 -0.667094,-0.667095 -1.7476,-0.667095 -0.732865,0 -1.33419,0.375828 -0.601325,0.366432 -0.958362,1.042923 -0.357037,0.667095 -0.357037,1.559687 v 8.775586 z"
         style="-inkscape-font-specification:'Inter Semi-Bold'"
         id="path916" />
      <path
         d="m 88.392391,31.489877 q -1.371772,0 -2.471069,-0.488576 -1.089902,-0.497973 -1.72881,-1.46573 Q 83.563,28.567813 83.563,27.149062 q 0,-1.221441 0.450994,-2.020076 0.450994,-0.798635 1.230837,-1.277815 0.779843,-0.479181 1.756996,-0.72347 0.986549,-0.253684 2.038868,-0.366432 1.26842,-0.13154 2.057659,-0.234893 0.789239,-0.112748 1.146276,-0.338245 0.366432,-0.234892 0.366432,-0.723469 v -0.05637 q 0,-1.061715 -0.629512,-1.644248 -0.629512,-0.582534 -1.813371,-0.582534 -1.249628,0 -1.982493,0.544951 -0.723469,0.544951 -0.977153,1.287211 l -3.175748,-0.450993 q 0.375828,-1.315399 1.240233,-2.198595 0.864405,-0.892592 2.114033,-1.33419 1.249629,-0.450994 2.762337,-0.450994 1.042923,0 2.07645,0.244289 1.033528,0.244288 1.888537,0.80803 0.855009,0.554347 1.371772,1.512708 0.52616,0.958362 0.52616,2.395905 v 9.658782 h -3.269705 v -1.982493 h -0.112749 q -0.310058,0.601325 -0.8738,1.127484 -0.554346,0.516764 -1.39996,0.836218 -0.836217,0.310058 -1.963702,0.310058 z m 0.883197,-2.499257 q 1.024131,0 1.775787,-0.404015 0.751657,-0.413411 1.155672,-1.089902 0.413411,-0.67649 0.413411,-1.475125 v -1.700622 q -0.159727,0.13154 -0.544951,0.244288 -0.375828,0.112748 -0.845613,0.19731 -0.469785,0.08456 -0.930175,0.150331 -0.460389,0.06577 -0.798635,0.112748 -0.761052,0.103353 -1.362377,0.338246 -0.601325,0.234892 -0.948966,0.657699 -0.347641,0.413411 -0.347641,1.07111 0,0.93957 0.685887,1.418751 0.685886,0.479181 1.747601,0.479181 z"
         style="-inkscape-font-specification:'Inter Semi-Bold'"
         id="path918" />
      <path
         d="M 102.31381,11.956211 V 31.19861 H 98.912564 V 11.956211 Z"
         style="-inkscape-font-specification:'Inter Semi-Bold'"
         id="path920" />
      <path
         d="m 111.6689,31.480481 q -2.17041,0 -3.74889,-0.901987 -1.56908,-0.911383 -2.41469,-2.574423 -0.84562,-1.672435 -0.84562,-3.936799 0,-2.226782 0.84562,-3.908613 0.85501,-1.691226 2.38651,-2.630797 1.53149,-0.948966 3.59855,-0.948966 1.33419,0 2.51805,0.432203 1.19325,0.422806 2.10464,1.315398 0.92077,0.892592 1.44693,2.27376 0.52616,1.371773 0.52616,3.269705 v 1.042923 h -11.82919 v -2.292552 h 8.56888 q -0.009,-0.977153 -0.4228,-1.738205 -0.41341,-0.770447 -1.15567,-1.212045 -0.73287,-0.441598 -1.71002,-0.441598 -1.04293,0 -1.83216,0.507368 -0.78924,0.497972 -1.23084,1.315398 -0.4322,0.808031 -0.4416,1.775788 v 2.001285 q 0,1.259024 0.46039,2.161011 0.46039,0.892592 1.28721,1.371773 0.82682,0.469785 1.93552,0.469785 0.74226,0 1.34358,-0.206705 0.60133,-0.216101 1.04292,-0.629512 0.4416,-0.413411 0.6671,-1.024132 l 3.17575,0.357037 q -0.30067,1.259024 -1.14628,2.198594 -0.83622,0.930175 -2.14222,1.446938 -1.306,0.507368 -2.98783,0.507368 z"
         style="-inkscape-font-specification:'Inter Semi-Bold'"
         id="path922" />
      <path
         d="M 120.43206,31.19861 V 16.766811 h 3.29789 v 2.405299 h 0.15033 q 0.39462,-1.249628 1.35298,-1.926119 0.96776,-0.685886 2.20799,-0.685886 0.28187,0 0.62951,0.02819 0.35704,0.01879 0.59193,0.06577 v 3.128769 q -0.2161,-0.07517 -0.68588,-0.13154 -0.46039,-0.06577 -0.8926,-0.06577 -0.93017,0 -1.67243,0.404016 -0.73287,0.394619 -1.15567,1.099297 -0.42281,0.704678 -0.42281,1.625457 v 8.484319 z"
         style="-inkscape-font-specification:'Inter Semi-Bold'"
         id="path924" />
      <path
         d="m 138.38423,16.766811 v 2.630796 h -8.29641 v -2.630796 z m -6.24815,-3.457619 h 3.40125 v 13.548604 q 0,0.685886 0.2067,1.052318 0.21611,0.357037 0.56375,0.488577 0.34764,0.13154 0.77044,0.13154 0.31946,0 0.58254,-0.04698 0.27247,-0.04698 0.41341,-0.08456 l 0.57314,2.658984 q -0.27248,0.09396 -0.77985,0.206705 -0.49797,0.112749 -1.22144,0.13154 -1.27781,0.03758 -2.30194,-0.385224 -1.02414,-0.432202 -1.62546,-1.33419 -0.59193,-0.901987 -0.58254,-2.254968 z"
         style="-inkscape-font-specification:'Inter Semi-Bold'"
         id="path926" />
    </g>
  </g>
</svg>
